<svg version="1" xmlns="http://www.w3.org/2000/svg" width="600" height="600" viewBox="0 0 450.000000 450.000000"><path d="M142 2.5c-14.1 2.1-16.1 2.5-26.3 5C90.8 13.8 66.2 25.7 44.5 42c-11.5 8.7-13 10.3-11.2 12.1.7.8 5.7 7.4 11.1 14.7C53.7 81.6 71.9 106 72.7 107c.4.5 3.7-1.5 7.9-4.7 8.3-6.5 12.8-9.5 22.4-15.1 14.8-8.5 22.6-11.8 40.5-17.2 9.1-2.8 31.4-4.2 41-2.7 31.3 5 50.4 24.1 50.5 50.3 0 15.2-3.9 25.3-13.5 34.9-12.9 12.9-30.8 22.4-76.4 40.6C92.8 214 63.5 232.6 46 255.9c-7 9.2-14.2 24.4-16.5 34.3-2.8 12.8-3.5 19.2-3.6 32.8 0 13.6.7 19.2 3.8 32 2.6 10.8 3.3 12.9 8.5 24 10.4 22.5 31.6 43.2 56.3 55 10 4.8 25.8 10.3 32.6 11.4 2 .3 4.2.8 5 1.1 8.9 3.3 53.4 4 68.9 1 1.3-.3 4.2-.7 6.5-1.1 12.1-1.7 39.6-9.8 47.7-14 1.5-.8 2.9-1.4 3-1.3.8.3 15.3-7 23.6-11.8 13.6-7.9 28.9-18.9 39.9-29l4.3-3.8-12.5-15.5c-6.9-8.5-13.2-16.3-14-17.3-.9-1-5.1-6.2-9.4-11.6l-7.8-9.9-5.9 5c-3.3 2.7-6.8 5.7-7.9 6.7-19.8 16.7-45.8 30.4-68.2 36.1-11.7 2.9-13.1 3.1-29.8 3.5-26.5.6-43.3-5-56.9-18.8-11.1-11.2-15.9-24-15-39.9.7-13.4 4.3-21.7 13.3-30.7 12.2-12.3 30.6-22.2 69.2-37.1 12.9-5 25.8-10.2 28.7-11.5 2.9-1.4 5.5-2.5 5.8-2.5 1.2 0 26.3-13 32.9-17 36.9-22.5 54.9-48.5 59-85 .8-6.7.8-27.2.1-32.5C301.9 67 279.5 35.7 242 17c-12.6-6.3-27.9-11.3-41-13.4-1.9-.3-4.6-.9-6-1.2-4.9-1.3-44.3-1.2-53 .1z"/><path d="M368.8 252.5c-.2.1-2.5.5-5.1.8-7.4.9-19.1 7-25.7 13.5-28.9 28.2-15.8 76.6 23.5 86.7 25.5 6.5 51.6-8.3 61.2-34.9 2.1-5.8 2.5-19.1.8-26.5-4.1-17.5-18.4-32.7-35.3-37.6-4.8-1.4-18.5-2.8-19.4-2z"/></svg>