<svg xmlns="http://www.w3.org/2000/svg" viewBox="0 0 494 211" id="logo-koios">
  <title>KOIOS</title>
  <defs>
    <style>
      #logo-koios * {
        visibility: hidden;
      }
      .blue {
        fill:#009be3;
      }
      .mask {
        fill: #000;
      }
      .guide {
        fill: transparent;
        stroke: transparent;
        stroke-width: 0;
        opacity: 0;
      }
      .mask-linear {
        fill: #fff;
      }
      .mask-area {
        fill: none;
        stroke: #fff;
        stroke-width: 20;
      }
      .claim {
        opacity: 0;
      }
      .white {
        fill:#fff;
      }
    </style>
    <mask id="the-mask-s" style="visibility: visible;">
      <path id="the-mask-s-inner" class="mask-area" d="M348.75,106A112,112,0,0,1,326.6,123.9q-15.45,9.55-27.4,9-13.25-.6-20.1-8.1T274.45,106q1.6-8.35,12.8-14.25,6.6-3.55,22.95-10.1Q321.95,76.25,324,65.8a20.14,20.14,0,0,0-3-15.45q-5.2-7.85-18.45-8.85-14.6-1.1-27.5,8.2-11.1,8-20.65,15.75L247,71.6" data-svg-origin="247 41.3836555480957" transform="matrix(0.99999,0.00017,-0.00017,0.99999,0.007226572446683122,-0.043109001996278096)" style="stroke-dashoffset: 0; stroke-dasharray: none; visibility: visible;"></path>
    </mask>
    <mask id="the-mask-i" style="visibility: visible;">
      <path id="the-mask-i-inner" class="mask-area" d="M247.05,13v148.3" data-svg-origin="247.0500030517578 13" transform="matrix(0.99999,0.00017,-0.00017,0.99999,0.0022726908027550508,-0.04311816148291925)" style="stroke-dashoffset: 0; stroke-dasharray: none; visibility: visible;"></path>
    </mask>
    <mask id="the-mask-ko" style="visibility: visible;">
      <path id="the-mask-ko-inner" class="mask-linear" d="M239.4,141.3V33H28.7V141.3Z" data-svg-origin="28.700000762939453 33" transform="matrix(1,0,0,1,0,0)" style="visibility: visible;"></path>
    </mask>
    <mask id="the-mask-o" style="visibility: visible;">
      <path id="the-mask-o-inner" class="mask-linear" d="M493.3,141.3V.8H254.75V141.3Z" data-svg-origin="254.75 0.800000011920929" transform="matrix(1,0,0,1,0,0)" style="visibility: visible;"></path>
    </mask>
  </defs>
  <path id="letters-o" class="white" mask="url(#the-mask-o)" d="M274.9,87.22c0,30.08,23.25,54,54.7,54,30.22,0,54.65-22.39,54.65-54,0-30-22.39-54.17-54.65-54.17C296.47,33,274.9,59.1,274.9,87.22Zm89.95,0c0,21.56-15.26,37.12-35.25,37.12-19.06,0-35.3-15.38-35.3-37.12,0-22.92,16.6-37.28,35.3-37.28C347.31,49.95,364.85,63.87,364.85,87.22Z" data-svg-origin="274.8999938964844 33.049930572509766" transform="matrix(1,0,0,1,0,0)" style="visibility: visible;"></path>
  <path id="letters-s" class="blue" mask="url(#the-mask-s)" d="M302.8,94.7c19-7.16,30.3-14.27,30.3-31.65,0-18.77-14.56-29.75-33.3-29.75a48.57,48.57,0,0,0-33.05,12.3l9.9,13.4q12.25-10,23.6-10c10.17,0,15.3,6,15.3,12.2,0,8.33-6.05,12.25-21.75,18.3-20.42,7.82-28.55,16.31-28.55,30.9v.3c0,17.53,13.32,30.35,34.05,30.35q21.55,0,38-15.15l-10.5-13.1c-8.48,7.76-17.23,12.5-27.6,12.5-10.07,0-16.55-5.55-16.55-13.35v-.2C282.65,104.22,288.15,100.1,302.8,94.7Z" data-svg-origin="265.25 33.29435729980469" transform="matrix(1,0,0,1,132.24991409362795,0)" style="visibility: visible;"></path>
  <path id="letters-ko" class="white" mask="url(#the-mask-ko)" d="M108.9,87.22c0,30.08,23.25,54,54.7,54,30.22,0,54.65-22.39,54.65-54,0-30-22.39-54.17-54.65-54.17C130.47,33,108.9,59.1,108.9,87.22Zm89.95,0c0,21.56-15.26,37.12-35.25,37.12-19.06,0-35.3-15.38-35.3-37.12,0-22.92,16.6-37.28,35.3-37.28C181.31,49.95,198.85,63.87,198.85,87.22Zm-91-52.57h-21L46.15,86.3V34.65H28.7v105.1H46.15V109.4L59.2,93.65l29.55,46.1h20.7L71.2,79.85Z" data-svg-origin="28.700000762939453 33.049930572509766" transform="matrix(1,0,0,1,0,0)" style="visibility: visible;"></path>
  <path id="letters-i" class="white" mask="url(#the-mask-i)" d="M238.35,34.65v105.1h17.4V34.65Z" style="visibility: visible;"></path>
  <path id="claim-ljudi" class="claim white" d="M28.75 192.36v-26.9h7.78c2.73 0 4.78.68 6.11 2a8.13 8.13 0 0 1 2 5.91 9.09 9.09 0 0 1-1.85 6.08c-1.21 1.42-3.17 2.14-5.81 2.14H31.9v10.74zM31.9 179h4.59a4.87 4.87 0 0 0 3.6-1.21c.8-.81 1.19-2.19 1.19-4.22s-.39-3.46-1.16-4.27a5.06 5.06 0 0 0-3.79-1.23H31.9zm24.84 13.86a7.35 7.35 0 0 1-5.84-2.36c-1.37-1.58-2.07-4.23-2.07-7.89a18 18 0 0 1 .55-4.74 8.72 8.72 0 0 1 1.52-3.15 5.76 5.76 0 0 1 2.38-1.72 9.11 9.11 0 0 1 6.18 0 5.35 5.35 0 0 1 2.22 1.64 7.82 7.82 0 0 1 1.4 3 18.2 18.2 0 0 1 .49 4.53v1.1H52v.26a20.55 20.55 0 0 0 .3 3.41 5.63 5.63 0 0 0 .84 2.19 3.09 3.09 0 0 0 1.52 1.15 6.71 6.71 0 0 0 2.17.31 6.05 6.05 0 0 0 2.78-.56 12.65 12.65 0 0 0 1.87-1.2l1.52 1.94a10.17 10.17 0 0 1-2.7 1.56 10.44 10.44 0 0 1-3.56.54zm-.44-18.26a4.76 4.76 0 0 0-1.66.28 2.87 2.87 0 0 0-1.31 1 5.93 5.93 0 0 0-.86 1.92 15.49 15.49 0 0 0-.45 3v.27h8.45v-.25a17.46 17.46 0 0 0-.2-2.91 4.72 4.72 0 0 0-.72-1.93 3 3 0 0 0-1.33-1.06 5.06 5.06 0 0 0-1.91-.31zm20 18.26a8.71 8.71 0 0 1-3.23-.58 6.34 6.34 0 0 1-2.47-1.78 8.57 8.57 0 0 1-1.6-3.14 16.67 16.67 0 0 1-.59-4.74 17.08 17.08 0 0 1 .57-4.7 8.74 8.74 0 0 1 1.58-3.17A5.89 5.89 0 0 1 73 173a8.89 8.89 0 0 1 3.23-.56 9 9 0 0 1 3.25.56 6 6 0 0 1 2.52 1.75 8.81 8.81 0 0 1 1.62 3.17 16.58 16.58 0 0 1 .58 4.7 17.38 17.38 0 0 1-.57 4.74 8.36 8.36 0 0 1-1.6 3.15 6.33 6.33 0 0 1-2.47 1.78 8.71 8.71 0 0 1-3.24.58zm0-18.26a5.62 5.62 0 0 0-2.08.35 3.16 3.16 0 0 0-1.5 1.32 7.33 7.33 0 0 0-.85 2.47 21.92 21.92 0 0 0-.28 3.87 21.6 21.6 0 0 0 .28 3.85 7.23 7.23 0 0 0 .87 2.48 3.34 3.34 0 0 0 1.51 1.35 5.89 5.89 0 0 0 4.16 0A3.24 3.24 0 0 0 79.9 189a7.31 7.31 0 0 0 .85-2.46 21.53 21.53 0 0 0 .28-3.85 21.89 21.89 0 0 0-.28-3.86 7.06 7.06 0 0 0-.87-2.48 3.36 3.36 0 0 0-1.53-1.35 5.37 5.37 0 0 0-2.07-.39zm14.1 25.74v-27.41h2.21l.62 2.54.32-.35a9.36 9.36 0 0 1 2.48-2 5.91 5.91 0 0 1 2.86-.73 7.39 7.39 0 0 1 2.58.44 4.77 4.77 0 0 1 2.06 1.55 8.22 8.22 0 0 1 1.4 3.09 20.64 20.64 0 0 1 .51 5c0 3.67-.55 6.35-1.63 8a5.56 5.56 0 0 1-5 2.39 6.5 6.5 0 0 1-2.89-.63 8.91 8.91 0 0 1-2.22-1.53l-.43-.41v10.05zm7.9-25.5a5.16 5.16 0 0 0-2.7.69 12.59 12.59 0 0 0-2.21 1.73l-.08 11a6.75 6.75 0 0 0 2.15 1.62 5.66 5.66 0 0 0 2.52.58 6 6 0 0 0 1.91-.27 2.67 2.67 0 0 0 1.39-1.16 6.48 6.48 0 0 0 .77-2.36 25.45 25.45 0 0 0 .24-3.9 31.09 31.09 0 0 0-.2-3.91 7.13 7.13 0 0 0-.69-2.41 2.66 2.66 0 0 0-1.3-1.25 4.68 4.68 0 0 0-1.82-.35zm18.32 17.79a5.29 5.29 0 0 0 .89-.22l-.39-2a3.11 3.11 0 0 1-.59 0 1.48 1.48 0 0 1-1.65-1.65v-24.7h-2.91v24.1a6.08 6.08 0 0 0 .8 3.58 3 3 0 0 0 2.56 1 7.58 7.58 0 0 0 1.27-.1zm12.87.24a7.34 7.34 0 0 1-5.83-2.36c-1.37-1.58-2.07-4.23-2.07-7.89a17.88 17.88 0 0 1 .55-4.74 8.69 8.69 0 0 1 1.52-3.15A5.76 5.76 0 0 1 126 173a9.11 9.11 0 0 1 6.18 0 5.35 5.35 0 0 1 2.22 1.64 7.81 7.81 0 0 1 1.4 3 18.23 18.23 0 0 1 .49 4.53v1.1h-11.57v.26a20.46 20.46 0 0 0 .3 3.41 5.61 5.61 0 0 0 .84 2.19 3.09 3.09 0 0 0 1.52 1.15 6.72 6.72 0 0 0 2.17.31 6.05 6.05 0 0 0 2.78-.56 12.62 12.62 0 0 0 1.87-1.2l1.56 2.06a10.2 10.2 0 0 1-2.7 1.56 10.43 10.43 0 0 1-3.59.42zm-.49-18.26a4.76 4.76 0 0 0-1.66.28 2.87 2.87 0 0 0-1.31 1 6 6 0 0 0-.86 1.92 15.58 15.58 0 0 0-.45 3v.27h8.44v-.25a17.67 17.67 0 0 0-.2-2.91 4.74 4.74 0 0 0-.72-1.93 3 3 0 0 0-1.32-1.06 5.06 5.06 0 0 0-1.92-.32zM146 192a2.58 2.58 0 0 0 0-3.54 2.49 2.49 0 0 0-3.49 0 2.59 2.59 0 0 0 0 3.54 2.48 2.48 0 0 0 3.49 0z" style="visibility: visible; opacity: 1;"></path>
  <path id="claim-znanje" class="claim white" d="M176.14 192.36l-8.69-14.62 8.66-12.39 3.33.1-8.5 12.08 8.85 14.84zm-12.6 0v-26.9h3.15v26.9zm34.7 0V177a4.44 4.44 0 0 0-1.24-3.5 4.92 4.92 0 0 0-3.32-1.09 6.41 6.41 0 0 0-3.16.8 12.75 12.75 0 0 0-2.75 2.11l-.33.33-.57-2.72h-2.2v19.43h2.91l.08-15a13.42 13.42 0 0 1 2.39-1.7 5.27 5.27 0 0 1 2.59-.75 2.71 2.71 0 0 1 2.08.68 3.77 3.77 0 0 1 .6 2.48v14.27zm13.94.52a8.7 8.7 0 0 1-3.23-.58 6.33 6.33 0 0 1-2.47-1.78 8.62 8.62 0 0 1-1.62-3.15 16.75 16.75 0 0 1-.58-4.74 17.15 17.15 0 0 1 .56-4.7 8.75 8.75 0 0 1 1.58-3.17 5.89 5.89 0 0 1 2.44-1.77 8.89 8.89 0 0 1 3.23-.56 9 9 0 0 1 3.25.56 6 6 0 0 1 2.48 1.78 8.81 8.81 0 0 1 1.62 3.17 16.6 16.6 0 0 1 .58 4.7 17.38 17.38 0 0 1-.57 4.74 8.37 8.37 0 0 1-1.6 3.15 6.33 6.33 0 0 1-2.47 1.78 8.72 8.72 0 0 1-3.19.56zm0-18.26a5.63 5.63 0 0 0-2.08.35 3.16 3.16 0 0 0-1.49 1.32 7.31 7.31 0 0 0-.85 2.47 21.92 21.92 0 0 0-.28 3.87 21.6 21.6 0 0 0 .28 3.85 7.22 7.22 0 0 0 .87 2.48 3.34 3.34 0 0 0 1.51 1.35 5.88 5.88 0 0 0 4.16 0 3.24 3.24 0 0 0 1.51-1.33 7.35 7.35 0 0 0 .85-2.46 21.73 21.73 0 0 0 .28-3.85 22.09 22.09 0 0 0-.28-3.86 7 7 0 0 0-.87-2.48 3.35 3.35 0 0 0-1.53-1.33 5.37 5.37 0 0 0-2.11-.39zm31.31 17.75l5.12-19.43h-2.93l-2.42 10.19-.33 1.6-.34 1.8-.36 2.08-.12.21h-.42v-.2c-.13-.64-.25-1.31-.36-2l-.36-1.82c-.13-.66-.26-1.25-.4-1.78L238 172.93h-3.18l-2.66 10.4q-.19.67-.37 1.55c-.12.59-.22 1.17-.3 1.72s-.2 1.32-.28 2l-.11.22h-.44l-.35-2.24-.32-1.85c-.11-.65-.22-1.23-.35-1.75l-2.38-10h-3.13l5 19.43h3l2.66-10.43q.2-.75.38-1.58c.12-.56.22-1.09.35-1.81l.42-2.37.08-.21h.43l.24 1.35.32 1.48.32 1.61c.1.54.22 1 .35 1.52l2.7 10.43zm15.25.28a5.26 5.26 0 0 0 .89-.22l-.39-2a3.14 3.14 0 0 1-.59 0 1.49 1.49 0 0 1-1.65-1.65v-24.72h-2.91v24.1a6.08 6.08 0 0 0 .8 3.58 3 3 0 0 0 2.56 1 7.54 7.54 0 0 0 1.26-.1zm12.87.24a7.35 7.35 0 0 1-5.83-2.36c-1.37-1.58-2.07-4.23-2.07-7.89a17.57 17.57 0 0 1 .55-4.74 8.65 8.65 0 0 1 1.52-3.15 5.73 5.73 0 0 1 2.36-1.75 8.35 8.35 0 0 1 3.11-.56 8.45 8.45 0 0 1 3.07.52 5.36 5.36 0 0 1 2.22 1.64 7.83 7.83 0 0 1 1.4 3 18 18 0 0 1 .49 4.53v1.1h-11.6v.26a21 21 0 0 0 .31 3.41 5.53 5.53 0 0 0 .86 2.1 3.07 3.07 0 0 0 1.51 1.15 6.71 6.71 0 0 0 2.17.31 6.08 6.08 0 0 0 2.79-.56 12.39 12.39 0 0 0 1.86-1.2l1.57 2.06a10.17 10.17 0 0 1-2.7 1.56 10.43 10.43 0 0 1-3.62.55zm-.44-18.26a4.77 4.77 0 0 0-1.66.28 2.86 2.86 0 0 0-1.31 1 5.92 5.92 0 0 0-.86 1.92 15.31 15.31 0 0 0-.45 3v.27h8.44v-.25a17.61 17.61 0 0 0-.2-2.91 4.81 4.81 0 0 0-.72-1.93 3 3 0 0 0-1.33-1.06 5.12 5.12 0 0 0-1.93-.34zm18.94 18.26a7.47 7.47 0 0 1-2.58-.44 4.78 4.78 0 0 1-2.05-1.55 8.27 8.27 0 0 1-1.41-3.09 20.94 20.94 0 0 1-.51-5c0-3.67.55-6.35 1.63-8a5.49 5.49 0 0 1 5-2.4 5.74 5.74 0 0 1 2.88.73 11 11 0 0 1 2.24 1.63l.43.41v-11.12h2.91v28.3h-2.22l-.63-2.33-.31.35a7.84 7.84 0 0 1-2.47 1.87 6.65 6.65 0 0 1-2.93.62zm.92-18a6 6 0 0 0-1.91.27 2.7 2.7 0 0 0-1.39 1.16 6.41 6.41 0 0 0-.77 2.36 25.2 25.2 0 0 0-.24 3.9 29.54 29.54 0 0 0 .2 3.91 7.13 7.13 0 0 0 .68 2.41 2.66 2.66 0 0 0 1.28 1.25 4.68 4.68 0 0 0 1.83.32 5.81 5.81 0 0 0 2.68-.58 9.11 9.11 0 0 0 2.23-1.64l.08-11a8.51 8.51 0 0 0-2.14-1.71 5 5 0 0 0-2.56-.69zm21.32 25.42c-2.84 0-4.89-.49-6.07-1.45a4.67 4.67 0 0 1-1.78-3.86 3.7 3.7 0 0 1 .74-2.41 7.54 7.54 0 0 1 1.81-1.6l.35-.22-.35-.21a2.77 2.77 0 0 1-1.39-2.57 4.18 4.18 0 0 1 .61-2.32 6.77 6.77 0 0 1 1.48-1.61l.28-.22-.3-.2a5 5 0 0 1-1.77-2 6.83 6.83 0 0 1-.62-3 5.76 5.76 0 0 1 1.83-4.62 7.51 7.51 0 0 1 5-1.57 8.79 8.79 0 0 1 1.61.14 9.34 9.34 0 0 1 1.39.37h5.66v1.62l-2.78.75.14.28a7 7 0 0 1 .73 3.15 5.6 5.6 0 0 1-1.77 4.54 7.54 7.54 0 0 1-5 1.5 9.88 9.88 0 0 1-2.47-.27h-.15l-.1.11a5.42 5.42 0 0 0-.85 1.25 3.08 3.08 0 0 0-.37 1.35 1.24 1.24 0 0 0 .38.92 1.75 1.75 0 0 0 1.27.37h3.42a8.33 8.33 0 0 1 5.11 1.38 5 5 0 0 1 1.79 4.21 5.78 5.78 0 0 1-1.88 4.58c-1.21 1.02-3.24 1.57-5.97 1.57zm-3.26-9a4.42 4.42 0 0 0-1.18 1.37 4.16 4.16 0 0 0-.47 2.05 5.27 5.27 0 0 0 .17 1.44 2.13 2.13 0 0 0 .74 1.11 3.73 3.73 0 0 0 1.52.65 12.15 12.15 0 0 0 2.44.2 6.12 6.12 0 0 0 3.69-.92 3.53 3.53 0 0 0 1.25-3 2.55 2.55 0 0 0-1.05-2.37 5.12 5.12 0 0 0-2.62-.59h-4.43zm3-16.61a3.85 3.85 0 0 0-2.8.93 4.31 4.31 0 0 0-1 3.14 4.05 4.05 0 0 0 1 3.05 4 4 0 0 0 2.82.9 3.89 3.89 0 0 0 2.84-.95 4.25 4.25 0 0 0 1-3.09 3.31 3.31 0 0 0-3.84-4zm20.65 18.22a7.33 7.33 0 0 1-5.83-2.36c-1.37-1.58-2.07-4.23-2.07-7.89a17.84 17.84 0 0 1 .55-4.74 8.6 8.6 0 0 1 1.53-3.15 5.71 5.71 0 0 1 2.36-1.75 9.11 9.11 0 0 1 6.18 0 5.4 5.4 0 0 1 2.23 1.64 7.89 7.89 0 0 1 1.4 3 18.12 18.12 0 0 1 .49 4.53v1.1H328v.26a19.82 19.82 0 0 0 .31 3.41 5.48 5.48 0 0 0 .84 2.19 3.06 3.06 0 0 0 1.52 1.15 6.67 6.67 0 0 0 2.17.31 6 6 0 0 0 2.78-.56 12.44 12.44 0 0 0 1.87-1.2l1.56 2.06a10.13 10.13 0 0 1-2.7 1.56 10.47 10.47 0 0 1-3.62.39zm-.43-18.26a4.77 4.77 0 0 0-1.66.28 2.88 2.88 0 0 0-1.31 1 6 6 0 0 0-.86 1.92 15.37 15.37 0 0 0-.44 3v.27h8.45v-.25a17.61 17.61 0 0 0-.2-2.91 4.78 4.78 0 0 0-.72-1.93 3 3 0 0 0-1.33-1.06 5.14 5.14 0 0 0-1.94-.37zM349.25 192a2.58 2.58 0 0 0 0-3.54 2.49 2.49 0 0 0-3.49 0 2.59 2.59 0 0 0 0 3.54 2.48 2.48 0 0 0 3.49 0z" style="visibility: visible; opacity: 1;"></path>
  <path id="claim-rezultati" class="claim white" d="M379.9 192.36l-2.69-7.55a12.84 12.84 0 0 0-.91-2.07 5.15 5.15 0 0 0-1-1.3 3 3 0 0 0-1.17-.65 5 5 0 0 0-1.32-.17H370v11.74h-3.15v-26.9h7.39a9.27 9.27 0 0 1 6 1.81c1.44 1.19 2.18 3.06 2.18 5.57a7.68 7.68 0 0 1-1.24 4.7 6.79 6.79 0 0 1-3.78 2.34l-.75.21.73.28a4.2 4.2 0 0 1 1.76 1.35 10.86 10.86 0 0 1 1.55 3.11l2.71 7.54zm-9.9-14.22h4c1.9 0 3.24-.44 4-1.3a6 6 0 0 0 1.1-4 5.07 5.07 0 0 0-1.13-3.64c-.75-.76-2.08-1.15-3.94-1.15H370zm25.68 14.73a7.34 7.34 0 0 1-5.83-2.36c-1.37-1.58-2.07-4.23-2.07-7.89a17.83 17.83 0 0 1 .55-4.74 8.63 8.63 0 0 1 1.52-3.15 5.73 5.73 0 0 1 2.36-1.75 9.11 9.11 0 0 1 6.18 0 5.39 5.39 0 0 1 2.23 1.64 7.82 7.82 0 0 1 1.4 3 18.21 18.21 0 0 1 .49 4.53v1.1h-11.63v.26a20.09 20.09 0 0 0 .3 3.41A5.53 5.53 0 0 0 392 189a3 3 0 0 0 1.52 1.15 6.67 6.67 0 0 0 2.17.31 6 6 0 0 0 2.78-.56 12.49 12.49 0 0 0 1.87-1.2l1.56 2.06a10.13 10.13 0 0 1-2.7 1.56 10.46 10.46 0 0 1-3.56.55zm-.43-18.26a4.76 4.76 0 0 0-1.66.28 2.87 2.87 0 0 0-1.31 1 5.9 5.9 0 0 0-.86 1.92 15.19 15.19 0 0 0-.44 3v.27h8.45v-.25a18 18 0 0 0-.2-2.91 4.75 4.75 0 0 0-.72-1.93 3 3 0 0 0-1.32-1.06 5.11 5.11 0 0 0-1.99-.32zm22.91 16.89a5.31 5.31 0 0 0 1.66-4.34 6.86 6.86 0 0 0-.46-2.69 5.05 5.05 0 0 0-1.23-1.76 6 6 0 0 0-1.79-1.11 22.84 22.84 0 0 0-2.18-.73c-.7-.19-1.28-.37-1.73-.54a4.27 4.27 0 0 1-1.17-.64 2.13 2.13 0 0 1-.67-.9 3.44 3.44 0 0 1-.2-1.27c0-1.24.59-2.72 3.39-2.72a8.32 8.32 0 0 1 2.12.24 11.46 11.46 0 0 1 2 .78l1-2.25a9.49 9.49 0 0 0-2.16-.84 12.21 12.21 0 0 0-3-.33 8 8 0 0 0-2.74.42 5 5 0 0 0-2 1.18 4.45 4.45 0 0 0-1.05 1.66 5.92 5.92 0 0 0-.34 2A6.87 6.87 0 0 0 408 180a4.88 4.88 0 0 0 1 1.68 5.34 5.34 0 0 0 1.56 1.1 11.58 11.58 0 0 0 1.93.7c.8.22 1.47.42 2 .61a4.6 4.6 0 0 1 1.37.7 2.58 2.58 0 0 1 .77 1 4 4 0 0 1 .24 1.48 3.27 3.27 0 0 1-.83 2.36 4 4 0 0 1-3 .86 8.17 8.17 0 0 1-2.86-.49 11.49 11.49 0 0 1-2.39-1.22l-1.18 2.1a10.21 10.21 0 0 0 2.56 1.3 10.85 10.85 0 0 0 3.72.63 8 8 0 0 0 5.22-1.31zm15.59.55a13.65 13.65 0 0 0 2.65-2.09l.34-.33.57 2.73h2.21v-19.43h-2.92l-.08 15a13.52 13.52 0 0 1-2.39 1.72 5.18 5.18 0 0 1-2.55.73 2.79 2.79 0 0 1-2.16-.76 3.91 3.91 0 0 1-.68-2.64v-14h-2.91V188a4.54 4.54 0 0 0 1.39 3.64 5.17 5.17 0 0 0 3.46 1.19 5.92 5.92 0 0 0 3.02-.78zm18.05.59a5.32 5.32 0 0 0 .89-.22l-.39-2a3.15 3.15 0 0 1-.59 0 1.48 1.48 0 0 1-1.65-1.65v-24.71h-2.96v24.1a6.08 6.08 0 0 0 .8 3.58 3 3 0 0 0 2.56 1 7.59 7.59 0 0 0 1.29-.1zm12.78 0a8.9 8.9 0 0 0 1.22-.43l-.55-2.05-.74.27a4 4 0 0 1-1.28.19c-.86 0-1.88-.36-1.88-2.08v-13.29h4.1v-2.32h-4.1v-5.82l-2.91.64v5.18h-2.27v2.32h2.27v13.63a3.5 3.5 0 0 0 1.26 3.1 5.71 5.71 0 0 0 3.25.89 5.91 5.91 0 0 0 1.59-.21zm16.2-1.16a5.32 5.32 0 0 0 1.66-4.34 6.92 6.92 0 0 0-.46-2.69 5.14 5.14 0 0 0-1.23-1.76 6 6 0 0 0-1.79-1.11 23 23 0 0 0-2.18-.73c-.7-.19-1.28-.37-1.73-.54a4.23 4.23 0 0 1-1.17-.64 2.12 2.12 0 0 1-.67-.9 3.49 3.49 0 0 1-.2-1.27c0-1.24.59-2.72 3.4-2.72a8.36 8.36 0 0 1 2.12.24 11.48 11.48 0 0 1 2 .78l1-2.25a9.5 9.5 0 0 0-2.16-.84 12.21 12.21 0 0 0-3-.33 8.06 8.06 0 0 0-2.73.42 5 5 0 0 0-1.86 1.14 4.42 4.42 0 0 0-1.06 1.66 6 6 0 0 0-.34 2 7 7 0 0 0 .38 2.44 4.93 4.93 0 0 0 1 1.68 5.3 5.3 0 0 0 1.56 1.1 11.61 11.61 0 0 0 1.93.7c.8.22 1.47.42 2 .61a4.68 4.68 0 0 1 1.37.7 2.58 2.58 0 0 1 .77 1 4 4 0 0 1 .24 1.48 3.27 3.27 0 0 1-.83 2.36 4 4 0 0 1-3 .86 8.15 8.15 0 0 1-2.85-.49 11.6 11.6 0 0 1-2.4-1.22l-1.18 2.1a10.36 10.36 0 0 0 2.56 1.3 10.86 10.86 0 0 0 3.72.63 8 8 0 0 0 5.09-1.35zm11.3.5a2.58 2.58 0 0 0 0-3.54 2.49 2.49 0 0 0-3.49 0 2.59 2.59 0 0 0 0 3.54 2.48 2.48 0 0 0 3.49 0z" style="visibility: visible; opacity: 1;"></path>
  <path id="guide-white-2" class="guide" d="M348.75,106A112,112,0,0,1,326.6,123.9q-15.45,9.55-27.4,9-13.25-.6-20.1-8.1T274.45,106q1.6-8.35,12.8-14.25,6.6-3.55,22.95-10.1Q321.95,76.25,324,65.8a20.14,20.14,0,0,0-3-15.45q-5.2-7.85-18.45-8.85-14.6-1.1-27.5,8.2-11.1,8-20.65,15.75L247,71.6"></path>
  <path id="guide-blue-2" class="guide" d="M247.05,13v148.3"></path>
  <path id="guide-blue-1" class="guide" d="M247.05,161.35a36.75,36.75,0,0,1-5.6-1,39.25,39.25,0,0,1-25.25-18.6,40.1,40.1,0,0,1-4.85-31.25A32,32,0,0,1,226.15,90a31.3,31.3,0,0,1,24.7-3.9A26.39,26.39,0,0,1,270.1,118a20.87,20.87,0,0,1-25.25,15.55,16.09,16.09,0,0,1-10.35-7.65,16.46,16.46,0,0,1-2-12.75,12.93,12.93,0,0,1,6.05-8.35,12.68,12.68,0,0,1,10.15-1.6,10.81,10.81,0,0,1,7.9,13,8.31,8.31,0,0,1-3.9,5.35,8,8,0,0,1-6.45,1,6.55,6.55,0,0,1-4.25-3.15,6.89,6.89,0,0,1-.8-5.25,5.44,5.44,0,0,1,2.45-3.4,5.21,5.21,0,0,1,4.15-.65,4.1,4.1,0,0,1,2.7,2,4.37,4.37,0,0,1,.55,3.35,3.56,3.56,0,0,1-1.6,2.2,3.33,3.33,0,0,1-2.65.4,2.6,2.6,0,0,1-1.75-1.25,2.73,2.73,0,0,1-.3-2.15,2.41,2.41,0,0,1,1-1.45,2.33,2.33,0,0,1,1.7-.25,1.91,1.91,0,0,1,1.1.8,1.72,1.72,0,0,1,.2,1.4,1.23,1.23,0,0,1-.6.9,1.44,1.44,0,0,1-1.1.15"></path>
  <path id="guide-white-1" class="guide" d="M247.05,71.4q2.8.4,5.55,1.05A39.44,39.44,0,0,1,277.85,91.1a40,40,0,0,1,4.85,31.2A32,32,0,0,1,268,142.75a31.17,31.17,0,0,1-24.75,3.9,25.16,25.16,0,0,1-16.15-11.95,25.71,25.71,0,0,1-3.1-20,20.35,20.35,0,0,1,9.45-13.05,20,20,0,0,1,15.8-2.5,16.27,16.27,0,0,1,10.4,7.65,16.45,16.45,0,0,1,2,12.8,13.42,13.42,0,0,1-16.2,10,10.25,10.25,0,0,1-6.6-4.9,10.54,10.54,0,0,1-1.25-8.2,8.53,8.53,0,0,1,3.85-5.35,8.26,8.26,0,0,1,6.5-1,6.94,6.94,0,0,1,5.05,8.35,5.41,5.41,0,0,1-2.5,3.45,5.21,5.21,0,0,1-4.15.65,4.32,4.32,0,0,1-2.7-2,4.25,4.25,0,0,1-.5-3.35,3.39,3.39,0,0,1,1.6-2.2,3.24,3.24,0,0,1,2.6-.4,2.6,2.6,0,0,1,1.75,1.25,2.91,2.91,0,0,1,.35,2.15,2,2,0,0,1-1,1.4,2.29,2.29,0,0,1-1.75.3,1.86,1.86,0,0,1-1.1-.85,1.62,1.62,0,0,1-.2-1.35,1.4,1.4,0,0,1,.65-.9,1.57,1.57,0,0,1,1.1-.2"></path>
  <circle id="dot-blue" class="blue" cx="247.08" cy="12.32" r="12.33" data-svg-origin="234.75 -0.010000228881835938" transform="matrix(1,0,0,1,-0.02999992370604332,0.6800003051757812)" style="opacity: 1; fill: rgb(0, 155, 227); visibility: visible;"></circle>
  <circle id="dot-white" class="white" cx="480.98" cy="106.02" r="12.33" data-svg-origin="468.6500244140625 93.68999481201172" transform="matrix(1,0,0,1,0.048680843734771884,-0.01999473571778765)" style="opacity: 1; fill: rgb(255, 255, 255); visibility: visible;"></circle>
</svg>